<svg width="18" height="20" viewBox="0 0 18 20" fill="none" xmlns="http://www.w3.org/2000/svg">
<path fill-rule="evenodd" clip-rule="evenodd" d="M16 1.99948H11.82C11.4 0.839481 10.3 -0.000518799 9 -0.000518799C7.7 -0.000518799 6.6 0.839481 6.18 1.99948H2C0.9 1.99948 0 2.89948 0 3.99948V17.9995C0 19.0995 0.9 19.9995 2 19.9995H16C17.1 19.9995 18 19.0995 18 17.9995V3.99948C18 2.89948 17.1 1.99948 16 1.99948ZM9 1.75C9.22 1.75 9.41 1.85 9.55 2C9.67 2.13 9.75 2.31 9.75 2.5C9.75 2.91 9.41 3.25 9 3.25C8.59 3.25 8.25 2.91 8.25 2.5C8.25 2.31 8.33 2.13 8.45 2C8.59 1.85 8.78 1.75 9 1.75ZM2.00104 18H16.001V4H2.00104V18ZM9 5.00038C7.35 5.00038 6 6.35038 6 8.00038C6 9.65038 7.35 11.0004 9 11.0004C10.65 11.0004 12 9.65038 12 8.00038C12 6.35038 10.65 5.00038 9 5.00038ZM8.00104 8C8.00104 8.55 8.45104 9 9.00104 9C9.55104 9 10.001 8.55 10.001 8C10.001 7.45 9.55104 7 9.00104 7C8.45104 7 8.00104 7.45 8.00104 8ZM3 15.4695V16.9995H15V15.4695C15 12.9695 11.03 11.8895 9 11.8895C6.97 11.8895 3 12.9595 3 15.4695ZM8.99879 13.879C7.68879 13.879 5.99879 14.439 5.30879 14.999H12.6888C12.0088 14.439 10.3088 13.879 8.99879 13.879Z" fill="#716E6A"/>
</svg>
