<svg width="14" height="20" viewBox="0 0 14 20" fill="none" xmlns="http://www.w3.org/2000/svg">
<path fill-rule="evenodd" clip-rule="evenodd" d="M7.00002 -3.05176e-05C3.13002 -3.05176e-05 1.52588e-05 3.12997 1.52588e-05 6.99997C1.52588e-05 12.25 7.00002 20 7.00002 20C7.00002 20 14 12.25 14 6.99997C14 3.12997 10.87 -3.05176e-05 7.00002 -3.05176e-05ZM2.00004 6.99995C2.00004 4.23995 4.24004 1.99995 7.00004 1.99995C9.76004 1.99995 12 4.23995 12 6.99995C12 9.87995 9.12004 14.1899 7.00004 16.8799C4.92004 14.2099 2.00004 9.84995 2.00004 6.99995ZM4.50002 6.99997C4.50002 5.61926 5.61931 4.49997 7.00002 4.49997C7.89318 4.49997 8.7185 4.97647 9.16508 5.74997C9.61166 6.52347 9.61166 7.47647 9.16508 8.24997C8.7185 9.02347 7.89318 9.49997 7.00002 9.49997C5.61931 9.49997 4.50002 8.38068 4.50002 6.99997Z" fill="#716E6A"/>
</svg>
