<svg width="32" height="32" viewBox="0 0 32 32" fill="none" 
  xmlns="http://www.w3.org/2000/svg">
  <path fill-rule="evenodd" clip-rule="evenodd" d="M2.66667 4H29.3333C30.8 4 32 5.2 32 6.66667L31.9867 25.3333C31.9867 26.8 30.8 28 29.3333 28H2.66667C1.2 28 0 26.8 0 25.3333V6.66667C0 5.2 1.2 4 2.66667 4ZM2.66667 25.3333H29.3333V6.66667H2.66667V25.3333ZM28 8H18.6667V14.6667H28V8ZM23.3333 13L26.6667 10.6667V9.33333L23.3333 11.6667L20 9.33333V10.6667L23.3333 13ZM12 16C14.2 16 16 14.2 16 12C16 9.8 14.2 8 12 8C9.8 8 8 9.8 8 12C8 14.2 9.8 16 12 16ZM13.3333 12C13.3333 11.2667 12.7333 10.6667 12 10.6667C11.2667 10.6667 10.6667 11.2667 10.6667 12C10.6667 12.7333 11.2667 13.3333 12 13.3333C12.7333 13.3333 13.3333 12.7333 13.3333 12ZM20 22.1199C20 18.7866 14.7067 17.3466 12 17.3466C9.29333 17.3466 4 18.7866 4 22.1199V23.9999H20V22.1199ZM12 20C10.2667 20 8.29333 20.6667 7.30666 21.3333H16.6933C15.6933 20.6533 13.7333 20 12 20Z"/>
</svg>
